<?xml version="1.0" ?>
<!-- Uploaded to: SVG Repo, www.svgrepo.com, Generator: SVG Repo Mixer Tools -->
<svg fill="#000000" width="800px" height="800px" viewBox="0 0 400 400" id="History" version="1.1" xml:space="preserve" xmlns="http://www.w3.org/2000/svg" xmlns:xlink="http://www.w3.org/1999/xlink">
<g id="XMLID_2_">
<polygon id="XMLID_3_" points="186.7,26.7 213.3,26.7 240,26.7 266.7,26.7 266.7,0 240,0 213.3,0 186.7,0 160,0 133.3,0    133.3,26.7 160,26.7  "/>
<polygon id="XMLID_24_" points="133.3,53.3 133.3,26.7 106.7,26.7 80,26.7 80,53.3 106.7,53.3  "/>
<rect height="26.7" id="XMLID_25_" width="26.7" x="53.3" y="53.3"/>
<polygon id="XMLID_26_" points="53.3,106.7 53.3,80 26.7,80 26.7,106.7 26.7,133.3 53.3,133.3  "/>
<polygon id="XMLID_27_" points="213.3,160 213.3,133.3 213.3,106.7 213.3,80 213.3,53.3 186.7,53.3 186.7,80 186.7,106.7    186.7,133.3 186.7,160 186.7,186.7 213.3,186.7  "/>
<rect height="26.7" id="XMLID_28_" width="26.7" x="160" y="186.7"/>
<polygon id="XMLID_29_" points="240,186.7 213.3,186.7 213.3,213.3 240,213.3 266.7,213.3 293.3,213.3 293.3,186.7 266.7,186.7     "/>
<polygon id="XMLID_30_" points="26.7,213.3 26.7,186.7 26.7,160 26.7,133.3 0,133.3 0,160 0,186.7 0,213.3 0,240 0,266.7    26.7,266.7 26.7,240  "/>
<rect height="26.7" id="XMLID_31_" width="26.7" x="186.7" y="213.3"/>
<polygon id="XMLID_32_" points="293.3,53.3 320,53.3 320,26.7 293.3,26.7 266.7,26.7 266.7,53.3  "/>
<rect height="26.7" id="XMLID_33_" width="26.7" x="320" y="53.3"/>
<polygon id="XMLID_34_" points="346.7,133.3 373.3,133.3 373.3,106.7 373.3,80 346.7,80 346.7,106.7  "/>
<polygon id="XMLID_35_" points="213.3,373.3 186.7,373.3 160,373.3 133.3,373.3 133.3,400 160,400 186.7,400 213.3,400 240,400    266.7,400 266.7,373.3 240,373.3  "/>
<polygon id="XMLID_36_" points="266.7,346.7 266.7,373.3 293.3,373.3 320,373.3 320,346.7 293.3,346.7  "/>
<rect height="26.7" id="XMLID_37_" width="26.7" x="320" y="320"/>
<polygon id="XMLID_38_" points="346.7,293.3 346.7,320 373.3,320 373.3,293.3 373.3,266.7 346.7,266.7  "/>
<polygon id="XMLID_39_" points="106.7,346.7 80,346.7 80,373.3 106.7,373.3 133.3,373.3 133.3,346.7  "/>
<rect height="26.7" id="XMLID_40_" width="26.7" x="53.3" y="320"/>
<polygon id="XMLID_41_" points="53.3,266.7 26.7,266.7 26.7,293.3 26.7,320 53.3,320 53.3,293.3  "/>
<polygon id="XMLID_42_" points="373.3,133.3 373.3,160 373.3,186.7 373.3,213.3 373.3,240 373.3,266.7 400,266.7 400,240    400,213.3 400,186.7 400,160 400,133.3  "/>
</g>
</svg>